<mxfile host="app.diagrams.net" agent="Mozilla/5.0 (Windows NT 10.0; Win64; x64) AppleWebKit/537.36 (KHTML, like Gecko) Chrome/131.0.0.0 Safari/537.36 Edg/131.0.0.0" version="25.0.1">
  <diagram name="หน้า-1" id="wTEEiPx94x2E2PCIlpTs">
    <mxGraphModel dx="2276" dy="650" grid="1" gridSize="10" guides="1" tooltips="1" connect="1" arrows="1" fold="1" page="1" pageScale="1" pageWidth="827" pageHeight="1169" math="0" shadow="0">
      <root>
        <mxCell id="0" />
        <mxCell id="1" parent="0" />
        <mxCell id="0PrjnQPJkk8ckZR_XSUj-1" value="" style="edgeStyle=orthogonalEdgeStyle;rounded=0;orthogonalLoop=1;jettySize=auto;html=1;" edge="1" parent="1" source="0PrjnQPJkk8ckZR_XSUj-2" target="0PrjnQPJkk8ckZR_XSUj-4">
          <mxGeometry relative="1" as="geometry" />
        </mxCell>
        <mxCell id="0PrjnQPJkk8ckZR_XSUj-2" value="Start" style="ellipse;whiteSpace=wrap;html=1;" vertex="1" parent="1">
          <mxGeometry x="-473" y="50" width="120" height="80" as="geometry" />
        </mxCell>
        <mxCell id="0PrjnQPJkk8ckZR_XSUj-4" value="รับข้อมูลUser" style="shape=parallelogram;perimeter=parallelogramPerimeter;whiteSpace=wrap;html=1;fixedSize=1;" vertex="1" parent="1">
          <mxGeometry x="-508" y="175" width="190" height="60" as="geometry" />
        </mxCell>
        <mxCell id="0PrjnQPJkk8ckZR_XSUj-7" value="END" style="ellipse;whiteSpace=wrap;html=1;" vertex="1" parent="1">
          <mxGeometry x="-473" y="650" width="120" height="80" as="geometry" />
        </mxCell>
        <mxCell id="0PrjnQPJkk8ckZR_XSUj-19" style="edgeStyle=orthogonalEdgeStyle;rounded=0;orthogonalLoop=1;jettySize=auto;html=1;entryX=0;entryY=0.5;entryDx=0;entryDy=0;" edge="1" parent="1" source="0PrjnQPJkk8ckZR_XSUj-9" target="0PrjnQPJkk8ckZR_XSUj-16">
          <mxGeometry relative="1" as="geometry">
            <Array as="points">
              <mxPoint x="-582" y="578" />
            </Array>
          </mxGeometry>
        </mxCell>
        <mxCell id="0PrjnQPJkk8ckZR_XSUj-9" value="is an even integer" style="shape=parallelogram;perimeter=parallelogramPerimeter;whiteSpace=wrap;html=1;fixedSize=1;" vertex="1" parent="1">
          <mxGeometry x="-676.5" y="465" width="190" height="60" as="geometry" />
        </mxCell>
        <mxCell id="0PrjnQPJkk8ckZR_XSUj-14" value="" style="edgeStyle=orthogonalEdgeStyle;rounded=0;orthogonalLoop=1;jettySize=auto;html=1;" edge="1" parent="1" target="0PrjnQPJkk8ckZR_XSUj-13">
          <mxGeometry relative="1" as="geometry">
            <mxPoint x="-413" y="234.99999999999977" as="sourcePoint" />
          </mxGeometry>
        </mxCell>
        <mxCell id="0PrjnQPJkk8ckZR_XSUj-17" style="edgeStyle=orthogonalEdgeStyle;rounded=0;orthogonalLoop=1;jettySize=auto;html=1;exitX=1;exitY=0.5;exitDx=0;exitDy=0;entryX=0.5;entryY=0;entryDx=0;entryDy=0;" edge="1" parent="1" source="0PrjnQPJkk8ckZR_XSUj-13" target="0PrjnQPJkk8ckZR_XSUj-15">
          <mxGeometry relative="1" as="geometry" />
        </mxCell>
        <mxCell id="0PrjnQPJkk8ckZR_XSUj-18" style="edgeStyle=orthogonalEdgeStyle;rounded=0;orthogonalLoop=1;jettySize=auto;html=1;entryX=0.5;entryY=0;entryDx=0;entryDy=0;" edge="1" parent="1" source="0PrjnQPJkk8ckZR_XSUj-13" target="0PrjnQPJkk8ckZR_XSUj-9">
          <mxGeometry relative="1" as="geometry">
            <Array as="points">
              <mxPoint x="-582" y="345" />
            </Array>
          </mxGeometry>
        </mxCell>
        <mxCell id="0PrjnQPJkk8ckZR_XSUj-13" value="หาร 2 ลงตัวไหม" style="rhombus;whiteSpace=wrap;html=1;" vertex="1" parent="1">
          <mxGeometry x="-486.5" y="305" width="147" height="80" as="geometry" />
        </mxCell>
        <mxCell id="0PrjnQPJkk8ckZR_XSUj-20" style="edgeStyle=orthogonalEdgeStyle;rounded=0;orthogonalLoop=1;jettySize=auto;html=1;entryX=1;entryY=0.5;entryDx=0;entryDy=0;" edge="1" parent="1" source="0PrjnQPJkk8ckZR_XSUj-15" target="0PrjnQPJkk8ckZR_XSUj-16">
          <mxGeometry relative="1" as="geometry">
            <Array as="points">
              <mxPoint x="-244" y="578" />
            </Array>
          </mxGeometry>
        </mxCell>
        <mxCell id="0PrjnQPJkk8ckZR_XSUj-15" value="is an odd integer" style="shape=parallelogram;perimeter=parallelogramPerimeter;whiteSpace=wrap;html=1;fixedSize=1;" vertex="1" parent="1">
          <mxGeometry x="-339.5" y="465" width="190" height="60" as="geometry" />
        </mxCell>
        <mxCell id="0PrjnQPJkk8ckZR_XSUj-21" style="edgeStyle=orthogonalEdgeStyle;rounded=0;orthogonalLoop=1;jettySize=auto;html=1;entryX=0.5;entryY=0;entryDx=0;entryDy=0;" edge="1" parent="1" source="0PrjnQPJkk8ckZR_XSUj-16" target="0PrjnQPJkk8ckZR_XSUj-7">
          <mxGeometry relative="1" as="geometry" />
        </mxCell>
        <mxCell id="0PrjnQPJkk8ckZR_XSUj-16" value="" style="ellipse;whiteSpace=wrap;html=1;aspect=fixed;" vertex="1" parent="1">
          <mxGeometry x="-425.5" y="565" width="25" height="25" as="geometry" />
        </mxCell>
        <mxCell id="0PrjnQPJkk8ckZR_XSUj-22" value="Y" style="text;html=1;align=center;verticalAlign=middle;whiteSpace=wrap;rounded=0;" vertex="1" parent="1">
          <mxGeometry x="-520" y="310" width="60" height="30" as="geometry" />
        </mxCell>
        <mxCell id="0PrjnQPJkk8ckZR_XSUj-23" value="N" style="text;html=1;align=center;verticalAlign=middle;whiteSpace=wrap;rounded=0;" vertex="1" parent="1">
          <mxGeometry x="-370" y="310" width="60" height="30" as="geometry" />
        </mxCell>
      </root>
    </mxGraphModel>
  </diagram>
</mxfile>
